<?xml version="1.0" standalone="no"?><!DOCTYPE svg PUBLIC "-//W3C//DTD SVG 1.1//EN" "http://www.w3.org/Graphics/SVG/1.1/DTD/svg11.dtd"><svg class="icon" height="512" viewBox="0 0 1048 1024" version="1.1" xmlns="http://www.w3.org/2000/svg"><path d="M12.8 499.2l58.88 30.72c0 0 25.6 15.36 40.96-12.8L256 199.68c0 0 12.8-28.16-7.68-40.96L184.32 128c0 0-20.48-12.8-33.28 12.8 0 10.24-148.48 322.56-148.48 322.56S-7.68 488.96 12.8 499.2L12.8 499.2zM970.24 529.92l58.88-28.16c0 0 28.16-12.8 15.36-40.96L896 145.92c0 0-12.8-28.16-35.84-17.92l-64 33.28c0 0-20.48 10.24-10.24 35.84 7.68 7.68 151.04 320 151.04 320S949.76 540.16 970.24 529.92L970.24 529.92zM153.6 529.92 174.08 486.4l69.12 92.16c0 0 46.08-10.24 61.44 17.92 0 0 15.36 17.92 7.68 51.2 0 0 10.24 7.68 10.24 10.24 0 0 30.72-7.68 48.64 15.36 0 0 17.92 15.36 15.36 40.96 0 0 12.8 5.12 15.36 12.8 0 0 30.72-7.68 46.08 10.24 0 0 17.92 17.92 17.92 38.4l28.16 20.48c0 0 25.6 2.56 30.72 23.04l25.6 20.48c0 0 40.96 17.92 43.52-25.6l-94.72-76.8c0 0-10.24-30.72 23.04-25.6l143.36 104.96c0 0 23.04 10.24 38.4-12.8 0 0 12.8-20.48-5.12-40.96L542.72 652.8c0 0-12.8-30.72 20.48-28.16l179.2 133.12c0 0 25.6 10.24 35.84-10.24 0 0 15.36-20.48 0-40.96l-197.12-151.04c0 0-12.8-35.84 25.6-25.6l204.8 151.04c0 0 30.72 10.24 43.52-15.36 0 0 17.92-28.16-5.12-51.2L560.64 350.72c0 0-53.76-25.6-84.48 28.16 0 0-5.12 92.16-102.4 107.52 0 0-66.56-5.12-51.2-51.2 0 0 20.48-25.6 17.92-84.48 0 0 2.56-40.96 28.16-74.24l-104.96 0L286.72 227.84l156.16 0c0 0 64-38.4 112.64-35.84 0 0 64 2.56 79.36 12.8 0 0 84.48 28.16 122.88 20.48L901.12 532.48l-23.04 53.76c0 0 40.96 43.52 10.24 97.28-7.68 17.92-30.72 35.84-66.56 35.84 0 0 5.12 35.84-20.48 56.32 0 0-17.92 25.6-61.44 17.92 0 0 2.56 30.72-25.6 53.76 0 0-35.84 30.72-89.6-7.68 0 0-7.68 35.84-51.2 43.52 0 0-30.72 5.12-48.64-12.8 0 0-33.28 64-79.36 28.16 0 0-30.72-25.6-7.68-61.44 0 0-40.96 66.56-87.04 15.36 0 0-25.6-20.48-2.56-64 0 0-38.4 43.52-79.36 5.12 0 0-28.16-23.04-5.12-69.12 0 0-38.4 48.64-84.48 2.56 0 0-17.92-17.92-7.68-58.88l43.52-61.44L153.6 529.92 153.6 529.92zM153.6 529.92" /></svg>